<?xml version="1.0" standalone="no"?>
<svg xmlns:xlink="http://www.w3.org/1999/xlink" id="wave" style="transform:rotate(180deg); transition: 0.3s" viewBox="0 0 1440 100" version="1.1" xmlns="http://www.w3.org/2000/svg"><defs><linearGradient id="sw-gradient-0" x1="0" x2="0" y1="1" y2="0"><stop stop-color="rgba(254, 252, 245, 1)" offset="0%"/><stop stop-color="rgba(254, 252, 245, 1)" offset="100%"/></linearGradient></defs><path style="transform:translate(0, 0px); opacity:1" fill="url(#sw-gradient-0)" d="M0,80L80,73.3C160,67,320,53,480,51.7C640,50,800,60,960,65C1120,70,1280,70,1440,60C1600,50,1760,30,1920,30C2080,30,2240,50,2400,50C2560,50,2720,30,2880,31.7C3040,33,3200,57,3360,63.3C3520,70,3680,60,3840,53.3C4000,47,4160,43,4320,48.3C4480,53,4640,67,4800,75C4960,83,5120,87,5280,75C5440,63,5600,37,5760,30C5920,23,6080,37,6240,41.7C6400,47,6560,43,6720,40C6880,37,7040,33,7200,41.7C7360,50,7520,70,7680,75C7840,80,8000,70,8160,65C8320,60,8480,60,8640,51.7C8800,43,8960,27,9120,30C9280,33,9440,57,9600,66.7C9760,77,9920,73,10080,71.7C10240,70,10400,70,10560,71.7C10720,73,10880,77,11040,66.7C11200,57,11360,33,11440,21.7L11520,10L11520,100L11440,100C11360,100,11200,100,11040,100C10880,100,10720,100,10560,100C10400,100,10240,100,10080,100C9920,100,9760,100,9600,100C9440,100,9280,100,9120,100C8960,100,8800,100,8640,100C8480,100,8320,100,8160,100C8000,100,7840,100,7680,100C7520,100,7360,100,7200,100C7040,100,6880,100,6720,100C6560,100,6400,100,6240,100C6080,100,5920,100,5760,100C5600,100,5440,100,5280,100C5120,100,4960,100,4800,100C4640,100,4480,100,4320,100C4160,100,4000,100,3840,100C3680,100,3520,100,3360,100C3200,100,3040,100,2880,100C2720,100,2560,100,2400,100C2240,100,2080,100,1920,100C1760,100,1600,100,1440,100C1280,100,1120,100,960,100C800,100,640,100,480,100C320,100,160,100,80,100L0,100Z"/></svg>