<?xml version="1.0" standalone="no"?>
<svg xmlns:xlink="http://www.w3.org/1999/xlink" id="wave" style="transform:rotate(180deg); transition: 0.3s" viewBox="0 0 1440 120" version="1.1" xmlns="http://www.w3.org/2000/svg"><defs><linearGradient id="sw-gradient-0" x1="0" x2="0" y1="1" y2="0"><stop stop-color="rgba(234, 243, 255, 1)" offset="0%"/><stop stop-color="rgba(234, 243, 255, 1)" offset="100%"/></linearGradient></defs><path style="transform:translate(0, 0px); opacity:1" fill="url(#sw-gradient-0)" d="M0,48L60,56C120,64,240,80,360,78C480,76,600,56,720,48C840,40,960,44,1080,52C1200,60,1320,72,1440,66C1560,60,1680,36,1800,22C1920,8,2040,4,2160,6C2280,8,2400,16,2520,34C2640,52,2760,80,2880,84C3000,88,3120,68,3240,54C3360,40,3480,32,3600,38C3720,44,3840,64,3960,60C4080,56,4200,28,4320,30C4440,32,4560,64,4680,72C4800,80,4920,64,5040,64C5160,64,5280,80,5400,82C5520,84,5640,72,5760,68C5880,64,6000,68,6120,62C6240,56,6360,40,6480,28C6600,16,6720,8,6840,8C6960,8,7080,16,7200,32C7320,48,7440,72,7560,76C7680,80,7800,64,7920,60C8040,56,8160,64,8280,58C8400,52,8520,32,8580,22L8640,12L8640,120L8580,120C8520,120,8400,120,8280,120C8160,120,8040,120,7920,120C7800,120,7680,120,7560,120C7440,120,7320,120,7200,120C7080,120,6960,120,6840,120C6720,120,6600,120,6480,120C6360,120,6240,120,6120,120C6000,120,5880,120,5760,120C5640,120,5520,120,5400,120C5280,120,5160,120,5040,120C4920,120,4800,120,4680,120C4560,120,4440,120,4320,120C4200,120,4080,120,3960,120C3840,120,3720,120,3600,120C3480,120,3360,120,3240,120C3120,120,3000,120,2880,120C2760,120,2640,120,2520,120C2400,120,2280,120,2160,120C2040,120,1920,120,1800,120C1680,120,1560,120,1440,120C1320,120,1200,120,1080,120C960,120,840,120,720,120C600,120,480,120,360,120C240,120,120,120,60,120L0,120Z"/></svg>