<?xml version="1.0" standalone="no"?>
<svg xmlns:xlink="http://www.w3.org/1999/xlink" id="wave" style="transform:rotate(180deg); transition: 0.3s" viewBox="0 0 1440 140" version="1.1" xmlns="http://www.w3.org/2000/svg"><defs><linearGradient id="sw-gradient-0" x1="0" x2="0" y1="1" y2="0"><stop stop-color="rgba(160, 211, 242, 1)" offset="0%"/><stop stop-color="rgba(160, 211, 242, 1)" offset="100%"/></linearGradient></defs><path style="transform:translate(0, 0px); opacity:1" fill="url(#sw-gradient-0)" d="M0,112L80,102.7C160,93,320,75,480,72.3C640,70,800,84,960,91C1120,98,1280,98,1440,84C1600,70,1760,42,1920,42C2080,42,2240,70,2400,70C2560,70,2720,42,2880,44.3C3040,47,3200,79,3360,88.7C3520,98,3680,84,3840,74.7C4000,65,4160,61,4320,67.7C4480,75,4640,93,4800,105C4960,117,5120,121,5280,105C5440,89,5600,51,5760,42C5920,33,6080,51,6240,58.3C6400,65,6560,61,6720,56C6880,51,7040,47,7200,58.3C7360,70,7520,98,7680,105C7840,112,8000,98,8160,91C8320,84,8480,84,8640,72.3C8800,61,8960,37,9120,42C9280,47,9440,79,9600,93.3C9760,107,9920,103,10080,100.3C10240,98,10400,98,10560,100.3C10720,103,10880,107,11040,93.3C11200,79,11360,47,11440,30.3L11520,14L11520,140L11440,140C11360,140,11200,140,11040,140C10880,140,10720,140,10560,140C10400,140,10240,140,10080,140C9920,140,9760,140,9600,140C9440,140,9280,140,9120,140C8960,140,8800,140,8640,140C8480,140,8320,140,8160,140C8000,140,7840,140,7680,140C7520,140,7360,140,7200,140C7040,140,6880,140,6720,140C6560,140,6400,140,6240,140C6080,140,5920,140,5760,140C5600,140,5440,140,5280,140C5120,140,4960,140,4800,140C4640,140,4480,140,4320,140C4160,140,4000,140,3840,140C3680,140,3520,140,3360,140C3200,140,3040,140,2880,140C2720,140,2560,140,2400,140C2240,140,2080,140,1920,140C1760,140,1600,140,1440,140C1280,140,1120,140,960,140C800,140,640,140,480,140C320,140,160,140,80,140L0,140Z"/></svg>